<svg xmlns="http://www.w3.org/2000/svg" viewBox="0 0 512 512">
  <rect width="512" height="512" fill="#0d1420"/>
  <g transform="translate(158, 120) scale(2.0)">
    
  <!-- Back frame (offset top-left) -->
  <rect x="28" y="15" width="108" height="145" rx="3"
        stroke="#C9A84C" stroke-width="5.5" fill="none" opacity="0.65"/>
  <!-- Front frame -->
  <rect x="44" y="28" width="108" height="145" rx="3"
        stroke="#C9A84C" stroke-width="5.5" fill="none"/>

  <!-- Quill body - large organic feather shape -->
  <path d="M 98 38 C 140 32 168 58 162 100 C 156 136 130 160 108 178 C 103 183 100 188 98 196 C 96 188 93 183 88 178 C 66 160 40 136 34 100 C 28 58 56 32 98 38 Z"
        fill="#C9A84C"/>
  <!-- Feather highlight -->
  <path d="M 98 38 C 120 34 148 54 148 88 C 148 118 128 144 108 162"
        stroke="#E8C96A" stroke-width="2" fill="none" opacity="0.4"/>

  <!-- Rachis / spine -->
  <line x1="98" y1="42" x2="98" y2="218"
        stroke="#8B6914" stroke-width="3.5" stroke-linecap="round"/>

  <!-- Left barbs -->
  <path d="M98 62 C80 70 64 80 50 92" stroke="#8B6914" stroke-width="1.8" fill="none" stroke-linecap="round"/>
  <path d="M98 78 C78 87 61 99 47 112" stroke="#8B6914" stroke-width="1.8" fill="none" stroke-linecap="round"/>
  <path d="M98 95 C79 104 63 116 50 130" stroke="#8B6914" stroke-width="1.6" fill="none" stroke-linecap="round"/>
  <path d="M98 112 C82 121 68 134 58 148" stroke="#8B6914" stroke-width="1.4" fill="none" stroke-linecap="round"/>
  <path d="M98 128 C85 137 74 148 68 161" stroke="#8B6914" stroke-width="1.2" fill="none" stroke-linecap="round"/>
  <path d="M98 144 C88 152 80 162 77 172" stroke="#8B6914" stroke-width="1" fill="none" stroke-linecap="round"/>

  <!-- Right barbs -->
  <path d="M98 62 C116 70 132 80 146 92" stroke="#8B6914" stroke-width="1.8" fill="none" stroke-linecap="round"/>
  <path d="M98 78 C118 87 135 99 149 112" stroke="#8B6914" stroke-width="1.8" fill="none" stroke-linecap="round"/>
  <path d="M98 95 C117 104 133 116 146 130" stroke="#8B6914" stroke-width="1.6" fill="none" stroke-linecap="round"/>
  <path d="M98 112 C114 121 128 134 138 148" stroke="#8B6914" stroke-width="1.4" fill="none" stroke-linecap="round"/>
  <path d="M98 128 C111 137 122 148 128 161" stroke="#8B6914" stroke-width="1.2" fill="none" stroke-linecap="round"/>
  <path d="M98 144 C108 152 116 162 119 172" stroke="#8B6914" stroke-width="1" fill="none" stroke-linecap="round"/>

  <!-- Nib point -->
  <path d="M95 196 L91 222 L98 234 L105 222 L101 196 Z" fill="#C9A84C"/>
  <!-- Base pedestal -->
  <path d="M84 228 Q98 244 112 228 L106 220 L90 220 Z" fill="#1a2847" stroke="#C9A84C" stroke-width="2"/>

  </g>
</svg>